<?xml version="1.0" encoding="UTF-8"?>
<svg id="track-svg" width="254.62mm" height="147.96mm" version="1.1" viewBox="0 0 254.62 147.96" xmlns="http://www.w3.org/2000/svg" xmlns:cc="http://creativecommons.org/ns#" xmlns:dc="http://purl.org/dc/elements/1.1/" xmlns:rdf="http://www.w3.org/1999/02/22-rdf-syntax-ns#">
 <metadata>
  <rdf:RDF>
   <cc:Work rdf:about="">
    <dc:format>image/svg+xml</dc:format>
    <dc:type rdf:resource="http://purl.org/dc/dcmitype/StillImage"/>
    <dc:title/>
   </cc:Work>
  </rdf:RDF>
 </metadata>
 <g transform="translate(-20.032 -117.77)" fill="none" stroke="#000" stroke-width="3">
  <path id="track" d="m201.88 174.23v34.588m-82.102 22.323v34.588m82.61-34.588v34.588m0-147.46v34.588m-83.537-34.588v34.588m155.8 39.143h-146.23m130.79 1.1581s-3.8603 56.669-56.669 56.978c-52.809 0.30882-78.132 0.1544-78.132 0.1544s-68.404 4.3235-69.176-20.846c-0.45613-14.87 5.6437-21.842 15.589-23.661 6.8886-1.2599 18.254 0.1193 24.712 3.2782 7.4696 3.6537 17.223 7.4224 26.713 7.5662 10.191 0.15441 24.086-3.9244 26.25-10.963s1.5441-12.971 1.5441-12.971m109.17-0.46324s-3.8603-56.669-56.669-56.978c-52.809-0.30882-78.132-0.15442-78.132-0.15442s-68.404-4.3235-69.176 20.846c-0.45613 14.87 5.6437 21.842 15.589 23.661 6.8886 1.2599 18.254-0.1193 24.712-3.2782 7.4696-3.6537 17.223-7.4224 26.713-7.5662 10.191-0.15441 24.086 3.9244 26.25 10.963s1.5441 12.971 1.5441 12.971"/>
  <path id="wall" d="m25.351 171.97v40.07"/>
 </g>
</svg>
